<?xml version="1.0" encoding="UTF-8" standalone="no"?>
<!DOCTYPE svg PUBLIC "-//W3C//DTD SVG 1.1//EN" "http://www.w3.org/Graphics/SVG/1.1/DTD/svg11.dtd">
<svg
	xmlns="http://www.w3.org/2000/svg"
	xmlns:xlink="http://www.w3.org/1999/xlink"
	version="1.0"
	width="2607.6px"
	height="2092px"
	viewBox="0 0 2607.6 2092"
	id="svg2">
<title>MakeSVGtempLib - jaime_h18-buffer_stage - layout</title><desc></desc>
<style>
.NWdrawing 		{fill:#9900e6; fill-opacity:0.1; stroke:#9900e6; stroke-width:2; stroke-linecap:round; stroke-linejoin:round; stroke-miterlimit:4; stroke-dasharray:none; stroke-dashoffset:0; stroke-opacity:1}
.RXdrawing 		{fill:#ffff00; fill-opacity:0.2; stroke:#ffff00; stroke-width:2; stroke-linecap:round; stroke-linejoin:round; stroke-miterlimit:4; stroke-dasharray:none; stroke-dashoffset:0; stroke-opacity:1}
.BPdrawing 		{fill:#bf4026; fill-opacity:0.1; stroke:#bf4026; stroke-width:2; stroke-linecap:round; stroke-linejoin:round; stroke-miterlimit:4; stroke-dasharray:none; stroke-dashoffset:0; stroke-opacity:1}
.PCdrawing 		{fill:#01fe00; fill-opacity:0.3; stroke:#01fe00; stroke-width:2; stroke-linecap:round; stroke-linejoin:round; stroke-miterlimit:4; stroke-dasharray:none; stroke-dashoffset:0; stroke-opacity:1}
.CAdrawing 		{fill:#ffffff; fill-opacity:1.0; stroke:#000000; stroke-width:2; stroke-linecap:round; stroke-linejoin:round; stroke-miterlimit:4; stroke-dasharray:none; stroke-dashoffset:0; stroke-opacity:1}
.M1drawing 		{fill:#0000ff; fill-opacity:0.3; stroke:#0000ff; stroke-width:2; stroke-linecap:round; stroke-linejoin:round; stroke-miterlimit:4; stroke-dasharray:none; stroke-dashoffset:0; stroke-opacity:1}
.V1drawing 		{fill:#39bfff; fill-opacity:1.0; stroke:#38bfff; stroke-width:2; stroke-linecap:round; stroke-linejoin:round; stroke-miterlimit:4; stroke-dasharray:none; stroke-dashoffset:0; stroke-opacity:1}
.M2drawing 		{fill:#ff0000; fill-opacity:0.3; stroke:#ff0000; stroke-width:2; stroke-linecap:round; stroke-linejoin:round; stroke-miterlimit:4; stroke-dasharray:none; stroke-dashoffset:0; stroke-opacity:1}
.V2drawing		{fill:#ff8000; fill-opacity:1.0; stroke:#ff8000; stroke-width:2; stroke-linecap:round; stroke-linejoin:round; stroke-miterlimit:4; stroke-dasharray:none; stroke-dashoffset:0; stroke-opacity:1}
.M3drawing		{fill:#01cc66; fill-opacity:0.3; stroke:#01cc66; stroke-width:2; stroke-linecap:round; stroke-linejoin:round; stroke-miterlimit:4; stroke-dasharray:none; stroke-dashoffset:0; stroke-opacity:1}
.DIODEdrawing 	{fill:#ffbff2; fill-opacity:0.3; stroke:#ffbff2; stroke-width:2; stroke-linecap:round; stroke-linejoin:round; stroke-miterlimit:4; stroke-dasharray:none; stroke-dashoffset:0; stroke-opacity:1}
</style>
<defs>
</defs>
<polygon class="DIODEdrawing" points="2435.6,700 2515.6,700 2515.6,620 2435.6,620 2435.6,700"/>
<polygon class="NWdrawing" points="7.6,528 2607.6,528 2607.6,0 7.6,0 7.6,528"/>
<polygon class="NWdrawing" points="2271.6,528 2607.6,528 2607.6,200 2271.6,200 2271.6,528"/>
<polygon class="NWdrawing" points="7.6,528 423.6,528 423.6,200 7.6,200 7.6,528"/>
<polygon class="NWdrawing" points="1263.6,528 1935.6,528 1935.6,200 1263.6,200 1263.6,528"/>
<polygon class="NWdrawing" points="255.6,528 927.6,528 927.6,200 255.6,200 255.6,528"/>
<polygon class="NWdrawing" points="759.6,528 1431.6,528 1431.6,200 759.6,200 759.6,528"/>
<polygon class="NWdrawing" points="1767.6,528 2439.6,528 2439.6,200 1767.6,200 1767.6,528"/>
<polygon class="NWdrawing" points="2229.6,200 2469.6,200 2469.6,0 2229.6,0 2229.6,200"/>
<polygon class="NWdrawing" points="1989.6,200 2229.6,200 2229.6,0 1989.6,0 1989.6,200"/>
<polygon class="NWdrawing" points="1749.6,200 1989.6,200 1989.6,0 1749.6,0 1749.6,200"/>
<polygon class="NWdrawing" points="1509.6,200 1749.6,200 1749.6,0 1509.6,0 1509.6,200"/>
<polygon class="NWdrawing" points="1269.6,200 1509.6,200 1509.6,0 1269.6,0 1269.6,200"/>
<polygon class="NWdrawing" points="1029.6,200 1269.6,200 1269.6,0 1029.6,0 1029.6,200"/>
<polygon class="NWdrawing" points="789.6,200 1029.6,200 1029.6,0 789.6,0 789.6,200"/>
<polygon class="NWdrawing" points="549.6,200 789.6,200 789.6,0 549.6,0 549.6,200"/>
<polygon class="NWdrawing" points="309.6,200 549.6,200 549.6,0 309.6,0 309.6,200"/>
<polygon class="NWdrawing" points="69.6,200 309.6,200 309.6,0 69.6,0 69.6,200"/>
<polygon class="RXdrawing" points="2367.6,444 2431.6,444 2431.6,284 2367.6,284 2367.6,444"/>
<polygon class="RXdrawing" points="2431.6,444 2523.6,444 2523.6,284 2431.6,284 2431.6,444"/>
<polygon class="RXdrawing" points="2355.6,444 2367.6,444 2367.6,284 2355.6,284 2355.6,444"/>
<polygon class="RXdrawing" points="579.6,1760 643.6,1760 643.6,1660 579.6,1660 579.6,1760"/>
<polygon class="RXdrawing" points="643.6,1760 735.6,1760 735.6,1660 643.6,1660 643.6,1760"/>
<polygon class="RXdrawing" points="487.6,1760 579.6,1760 579.6,1660 487.6,1660 487.6,1760"/>
<polygon class="RXdrawing" points="183.6,444 247.6,444 247.6,284 183.6,284 183.6,444"/>
<polygon class="RXdrawing" points="91.6,444 183.6,444 183.6,284 91.6,284 91.6,444"/>
<polygon class="RXdrawing" points="247.6,444 339.6,444 339.6,284 247.6,284 247.6,444"/>
<polygon class="RXdrawing" points="1971.6,1760 2035.6,1760 2035.6,1660 1971.6,1660 1971.6,1760"/>
<polygon class="RXdrawing" points="2035.6,1760 2127.6,1760 2127.6,1660 2035.6,1660 2035.6,1760"/>
<polygon class="RXdrawing" points="1959.6,1760 1971.6,1760 1971.6,1660 1959.6,1660 1959.6,1760"/>
<polygon class="RXdrawing" points="1359.6,444 1759.6,444 1759.6,284 1359.6,284 1359.6,444"/>
<polygon class="RXdrawing" points="1759.6,444 1851.6,444 1851.6,284 1759.6,284 1759.6,444"/>
<polygon class="RXdrawing" points="1347.6,444 1359.6,444 1359.6,284 1347.6,284 1347.6,444"/>
<polygon class="RXdrawing" points="351.6,444 751.6,444 751.6,284 351.6,284 351.6,444"/>
<polygon class="RXdrawing" points="751.6,444 843.6,444 843.6,284 751.6,284 751.6,444"/>
<polygon class="RXdrawing" points="339.6,444 351.6,444 351.6,284 339.6,284 339.6,444"/>
<polygon class="RXdrawing" points="747.6,1760 847.6,1760 847.6,1660 747.6,1660 747.6,1760"/>
<polygon class="RXdrawing" points="735.6,1760 747.6,1760 747.6,1660 735.6,1660 735.6,1760"/>
<polygon class="RXdrawing" points="847.6,1760 939.6,1760 939.6,1660 847.6,1660 847.6,1760"/>
<polygon class="RXdrawing" points="1563.6,1760 1663.6,1760 1663.6,1660 1563.6,1660 1563.6,1760"/>
<polygon class="RXdrawing" points="1551.6,1760 1563.6,1760 1563.6,1660 1551.6,1660 1551.6,1760"/>
<polygon class="RXdrawing" points="1663.6,1760 1755.6,1760 1755.6,1660 1663.6,1660 1663.6,1760"/>
<polygon class="RXdrawing" points="1155.6,1760 1255.6,1760 1255.6,1660 1155.6,1660 1155.6,1760"/>
<polygon class="RXdrawing" points="1143.6,1760 1155.6,1760 1155.6,1660 1143.6,1660 1143.6,1760"/>
<polygon class="RXdrawing" points="1255.6,1760 1347.6,1760 1347.6,1660 1255.6,1660 1255.6,1760"/>
<polygon class="RXdrawing" points="2175.6,1288 2239.6,1288 2239.6,888 2175.6,888 2175.6,1288"/>
<polygon class="RXdrawing" points="2239.6,1288 2331.6,1288 2331.6,888 2239.6,888 2239.6,1288"/>
<polygon class="RXdrawing" points="2163.6,1288 2175.6,1288 2175.6,888 2163.6,888 2163.6,1288"/>
<polygon class="RXdrawing" points="2435.6,700 2515.6,700 2515.6,620 2435.6,620 2435.6,700"/>
<polygon class="RXdrawing" points="375.6,1288 439.6,1288 439.6,888 375.6,888 375.6,1288"/>
<polygon class="RXdrawing" points="283.6,1288 375.6,1288 375.6,888 283.6,888 283.6,1288"/>
<polygon class="RXdrawing" points="439.6,1288 531.6,1288 531.6,888 439.6,888 439.6,1288"/>
<polygon class="RXdrawing" points="951.6,1760 1051.6,1760 1051.6,1660 951.6,1660 951.6,1760"/>
<polygon class="RXdrawing" points="1051.6,1760 1143.6,1760 1143.6,1660 1051.6,1660 1051.6,1760"/>
<polygon class="RXdrawing" points="939.6,1760 951.6,1760 951.6,1660 939.6,1660 939.6,1760"/>
<polygon class="RXdrawing" points="1767.6,1760 1867.6,1760 1867.6,1660 1767.6,1660 1767.6,1760"/>
<polygon class="RXdrawing" points="1867.6,1760 1959.6,1760 1959.6,1660 1867.6,1660 1867.6,1760"/>
<polygon class="RXdrawing" points="1755.6,1760 1767.6,1760 1767.6,1660 1755.6,1660 1755.6,1760"/>
<polygon class="RXdrawing" points="1359.6,1760 1459.6,1760 1459.6,1660 1359.6,1660 1359.6,1760"/>
<polygon class="RXdrawing" points="1459.6,1760 1551.6,1760 1551.6,1660 1459.6,1660 1459.6,1760"/>
<polygon class="RXdrawing" points="1347.6,1760 1359.6,1760 1359.6,1660 1347.6,1660 1347.6,1760"/>
<polygon class="RXdrawing" points="855.6,444 1255.6,444 1255.6,284 855.6,284 855.6,444"/>
<polygon class="RXdrawing" points="843.6,444 855.6,444 855.6,284 843.6,284 843.6,444"/>
<polygon class="RXdrawing" points="1255.6,444 1347.6,444 1347.6,284 1255.6,284 1255.6,444"/>
<polygon class="RXdrawing" points="1863.6,444 2263.6,444 2263.6,284 1863.6,284 1863.6,444"/>
<polygon class="RXdrawing" points="1851.6,444 1863.6,444 1863.6,284 1851.6,284 1851.6,444"/>
<polygon class="RXdrawing" points="2263.6,444 2355.6,444 2355.6,284 2263.6,284 2263.6,444"/>
<polygon class="RXdrawing" points="543.6,1288 643.6,1288 643.6,888 543.6,888 543.6,1288"/>
<polygon class="RXdrawing" points="643.6,1288 735.6,1288 735.6,888 643.6,888 643.6,1288"/>
<polygon class="RXdrawing" points="531.6,1288 543.6,1288 543.6,888 531.6,888 531.6,1288"/>
<polygon class="RXdrawing" points="1767.6,1288 1867.6,1288 1867.6,888 1767.6,888 1767.6,1288"/>
<polygon class="RXdrawing" points="1867.6,1288 1959.6,1288 1959.6,888 1867.6,888 1867.6,1288"/>
<polygon class="RXdrawing" points="1755.6,1288 1767.6,1288 1767.6,888 1755.6,888 1755.6,1288"/>
<polygon class="RXdrawing" points="1359.6,1288 1459.6,1288 1459.6,888 1359.6,888 1359.6,1288"/>
<polygon class="RXdrawing" points="1459.6,1288 1551.6,1288 1551.6,888 1459.6,888 1459.6,1288"/>
<polygon class="RXdrawing" points="1347.6,1288 1359.6,1288 1359.6,888 1347.6,888 1347.6,1288"/>
<polygon class="RXdrawing" points="951.6,1288 1051.6,1288 1051.6,888 951.6,888 951.6,1288"/>
<polygon class="RXdrawing" points="1051.6,1288 1143.6,1288 1143.6,888 1051.6,888 1051.6,1288"/>
<polygon class="RXdrawing" points="939.6,1288 951.6,1288 951.6,888 939.6,888 939.6,1288"/>
<polygon class="RXdrawing" points="1971.6,1288 2071.6,1288 2071.6,888 1971.6,888 1971.6,1288"/>
<polygon class="RXdrawing" points="1959.6,1288 1971.6,1288 1971.6,888 1959.6,888 1959.6,1288"/>
<polygon class="RXdrawing" points="2071.6,1288 2163.6,1288 2163.6,888 2071.6,888 2071.6,1288"/>
<polygon class="RXdrawing" points="747.6,1288 847.6,1288 847.6,888 747.6,888 747.6,1288"/>
<polygon class="RXdrawing" points="735.6,1288 747.6,1288 747.6,888 735.6,888 735.6,1288"/>
<polygon class="RXdrawing" points="847.6,1288 939.6,1288 939.6,888 847.6,888 847.6,1288"/>
<polygon class="RXdrawing" points="1155.6,1288 1255.6,1288 1255.6,888 1155.6,888 1155.6,1288"/>
<polygon class="RXdrawing" points="1143.6,1288 1155.6,1288 1155.6,888 1143.6,888 1143.6,1288"/>
<polygon class="RXdrawing" points="1255.6,1288 1347.6,1288 1347.6,888 1255.6,888 1255.6,1288"/>
<polygon class="RXdrawing" points="1563.6,1288 1663.6,1288 1663.6,888 1563.6,888 1563.6,1288"/>
<polygon class="RXdrawing" points="1551.6,1288 1563.6,1288 1563.6,888 1551.6,888 1551.6,1288"/>
<polygon class="RXdrawing" points="1663.6,1288 1755.6,1288 1755.6,888 1663.6,888 1663.6,1288"/>
<polygon class="RXdrawing" points="2299.6,2064 2459.6,2064 2459.6,1904 2299.6,1904 2299.6,2064"/>
<polygon class="RXdrawing" points="2083.6,2064 2243.6,2064 2243.6,1904 2083.6,1904 2083.6,2064"/>
<polygon class="RXdrawing" points="1867.6,2064 2027.6,2064 2027.6,1904 1867.6,1904 1867.6,2064"/>
<polygon class="RXdrawing" points="1651.6,2064 1811.6,2064 1811.6,1904 1651.6,1904 1651.6,2064"/>
<polygon class="RXdrawing" points="1435.6,2064 1595.6,2064 1595.6,1904 1435.6,1904 1435.6,2064"/>
<polygon class="RXdrawing" points="1219.6,2064 1379.6,2064 1379.6,1904 1219.6,1904 1219.6,2064"/>
<polygon class="RXdrawing" points="1003.6,2064 1163.6,2064 1163.6,1904 1003.6,1904 1003.6,2064"/>
<polygon class="RXdrawing" points="787.6,2064 947.6,2064 947.6,1904 787.6,1904 787.6,2064"/>
<polygon class="RXdrawing" points="571.6,2064 731.6,2064 731.6,1904 571.6,1904 571.6,2064"/>
<polygon class="RXdrawing" points="355.6,2064 515.6,2064 515.6,1904 355.6,1904 355.6,2064"/>
<polygon class="RXdrawing" points="139.6,2064 299.6,2064 299.6,1904 139.6,1904 139.6,2064"/>
<polygon class="RXdrawing" points="2261.6,168 2437.6,168 2437.6,48 2261.6,48 2261.6,168"/>
<polygon class="RXdrawing" points="2021.6,168 2197.6,168 2197.6,48 2021.6,48 2021.6,168"/>
<polygon class="RXdrawing" points="1781.6,168 1957.6,168 1957.6,48 1781.6,48 1781.6,168"/>
<polygon class="RXdrawing" points="1541.6,168 1717.6,168 1717.6,48 1541.6,48 1541.6,168"/>
<polygon class="RXdrawing" points="1301.6,168 1477.6,168 1477.6,48 1301.6,48 1301.6,168"/>
<polygon class="RXdrawing" points="1061.6,168 1237.6,168 1237.6,48 1061.6,48 1061.6,168"/>
<polygon class="RXdrawing" points="821.6,168 997.6,168 997.6,48 821.6,48 821.6,168"/>
<polygon class="RXdrawing" points="581.6,168 757.6,168 757.6,48 581.6,48 581.6,168"/>
<polygon class="RXdrawing" points="341.6,168 517.6,168 517.6,48 341.6,48 341.6,168"/>
<polygon class="RXdrawing" points="101.6,168 277.6,168 277.6,48 101.6,48 101.6,168"/>
<polygon class="BPdrawing" points="7.6,2092 2605.6,2092 2605.6,1876 7.6,1876 7.6,2092"/>
<polygon class="BPdrawing" points="2327.6,516 2551.6,516 2551.6,212 2327.6,212 2327.6,516"/>
<polygon class="BPdrawing" points="63.6,516 367.6,516 367.6,212 63.6,212 63.6,516"/>
<polygon class="BPdrawing" points="1319.6,516 1879.6,516 1879.6,212 1319.6,212 1319.6,516"/>
<polygon class="BPdrawing" points="311.6,516 871.6,516 871.6,212 311.6,212 311.6,516"/>
<polygon class="BPdrawing" points="815.6,516 1375.6,516 1375.6,212 815.6,212 815.6,516"/>
<polygon class="BPdrawing" points="1823.6,516 2383.6,516 2383.6,212 1823.6,212 1823.6,516"/>
<polygon class="BPdrawing" points="2271.6,2092 2487.6,2092 2487.6,1876 2271.6,1876 2271.6,2092"/>
<polygon class="BPdrawing" points="2055.6,2092 2271.6,2092 2271.6,1876 2055.6,1876 2055.6,2092"/>
<polygon class="BPdrawing" points="1839.6,2092 2055.6,2092 2055.6,1876 1839.6,1876 1839.6,2092"/>
<polygon class="BPdrawing" points="1623.6,2092 1839.6,2092 1839.6,1876 1623.6,1876 1623.6,2092"/>
<polygon class="BPdrawing" points="1407.6,2092 1623.6,2092 1623.6,1876 1407.6,1876 1407.6,2092"/>
<polygon class="BPdrawing" points="1191.6,2092 1407.6,2092 1407.6,1876 1191.6,1876 1191.6,2092"/>
<polygon class="BPdrawing" points="975.6,2092 1191.6,2092 1191.6,1876 975.6,1876 975.6,2092"/>
<polygon class="BPdrawing" points="759.6,2092 975.6,2092 975.6,1876 759.6,1876 759.6,2092"/>
<polygon class="BPdrawing" points="543.6,2092 759.6,2092 759.6,1876 543.6,1876 543.6,2092"/>
<polygon class="BPdrawing" points="327.6,2092 543.6,2092 543.6,1876 327.6,1876 327.6,2092"/>
<polygon class="BPdrawing" points="111.6,2092 327.6,2092 327.6,1876 111.6,1876 111.6,2092"/>
<polygon class="PCdrawing" points="351.6,620 751.6,620 751.6,236 351.6,236 351.6,620"/>
<polygon class="PCdrawing" points="543.6,896 643.6,896 643.6,722 543.6,722 543.6,896"/>
<polygon class="PCdrawing" points="1155.6,896 1255.6,896 1255.6,722 1155.6,722 1155.6,896"/>
<polygon class="PCdrawing" points="1359.6,896 1459.6,896 1459.6,722 1359.6,722 1359.6,896"/>
<polygon class="PCdrawing" points="1971.6,896 2071.6,896 2071.6,722 1971.6,722 1971.6,896"/>
<polygon class="PCdrawing" points="747.6,1464 847.6,1464 847.6,1296 747.6,1296 747.6,1464"/>
<polygon class="PCdrawing" points="951.6,1464 1051.6,1464 1051.6,1296 951.6,1296 951.6,1464"/>
<polygon class="PCdrawing" points="1563.6,1464 1663.6,1464 1663.6,1296 1563.6,1296 1563.6,1464"/>
<polygon class="PCdrawing" points="1767.6,1464 1867.6,1464 1867.6,1296 1767.6,1296 1767.6,1464"/>
<polygon class="PCdrawing" points="1359.6,620 1759.6,620 1759.6,236 1359.6,236 1359.6,620"/>
<polygon class="PCdrawing" points="1863.6,620 2263.6,620 2263.6,236 1863.6,236 1863.6,620"/>
<polygon class="PCdrawing" points="183.6,534 247.6,534 247.6,236 183.6,236 183.6,534"/>
<polygon class="PCdrawing" points="2367.6,492 2431.6,492 2431.6,444 2367.6,444 2367.6,492"/>
<polygon class="PCdrawing" points="351.6,528 751.6,528 751.6,236 351.6,236 351.6,528"/>
<polygon class="PCdrawing" points="2367.6,444 2431.6,444 2431.6,284 2367.6,284 2367.6,444"/>
<polygon class="PCdrawing" points="855.6,620 1255.6,620 1255.6,236 855.6,236 855.6,620"/>
<polygon class="PCdrawing" points="855.6,528 1255.6,528 1255.6,236 855.6,236 855.6,528"/>
<polygon class="PCdrawing" points="1359.6,528 1759.6,528 1759.6,236 1359.6,236 1359.6,528"/>
<polygon class="PCdrawing" points="1863.6,528 2263.6,528 2263.6,236 1863.6,236 1863.6,528"/>
<polygon class="PCdrawing" points="2367.6,534 2431.6,534 2431.6,236 2367.6,236 2367.6,534"/>
<polygon class="PCdrawing" points="495.6,1844 643.6,1844 643.6,1780 495.6,1780 495.6,1844"/>
<polygon class="PCdrawing" points="1971.6,1844 2119.6,1844 2119.6,1780 1971.6,1780 1971.6,1844"/>
<polygon class="PCdrawing" points="2367.6,284 2431.6,284 2431.6,236 2367.6,236 2367.6,284"/>
<polygon class="PCdrawing" points="579.6,1760 643.6,1760 643.6,1660 579.6,1660 579.6,1760"/>
<polygon class="PCdrawing" points="579.6,1660 643.6,1660 643.6,1612 579.6,1612 579.6,1660"/>
<polygon class="PCdrawing" points="579.6,1808 643.6,1808 643.6,1760 579.6,1760 579.6,1808"/>
<polygon class="PCdrawing" points="183.6,444 247.6,444 247.6,284 183.6,284 183.6,444"/>
<polygon class="PCdrawing" points="183.6,284 247.6,284 247.6,236 183.6,236 183.6,284"/>
<polygon class="PCdrawing" points="183.6,492 247.6,492 247.6,444 183.6,444 183.6,492"/>
<polygon class="PCdrawing" points="1971.6,1760 2035.6,1760 2035.6,1660 1971.6,1660 1971.6,1760"/>
<polygon class="PCdrawing" points="1971.6,1660 2035.6,1660 2035.6,1612 1971.6,1612 1971.6,1660"/>
<polygon class="PCdrawing" points="1971.6,1808 2035.6,1808 2035.6,1760 1971.6,1760 1971.6,1808"/>
<polygon class="PCdrawing" points="1359.6,444 1759.6,444 1759.6,284 1359.6,284 1359.6,444"/>
<polygon class="PCdrawing" points="1359.6,284 1759.6,284 1759.6,236 1359.6,236 1359.6,284"/>
<polygon class="PCdrawing" points="1359.6,492 1759.6,492 1759.6,444 1359.6,444 1359.6,492"/>
<polygon class="PCdrawing" points="351.6,444 751.6,444 751.6,284 351.6,284 351.6,444"/>
<polygon class="PCdrawing" points="351.6,284 751.6,284 751.6,236 351.6,236 351.6,284"/>
<polygon class="PCdrawing" points="351.6,492 751.6,492 751.6,444 351.6,444 351.6,492"/>
<polygon class="PCdrawing" points="747.6,1760 847.6,1760 847.6,1660 747.6,1660 747.6,1760"/>
<polygon class="PCdrawing" points="747.6,1660 847.6,1660 847.6,1612 747.6,1612 747.6,1660"/>
<polygon class="PCdrawing" points="747.6,1808 847.6,1808 847.6,1760 747.6,1760 747.6,1808"/>
<polygon class="PCdrawing" points="1563.6,1760 1663.6,1760 1663.6,1660 1563.6,1660 1563.6,1760"/>
<polygon class="PCdrawing" points="1563.6,1660 1663.6,1660 1663.6,1612 1563.6,1612 1563.6,1660"/>
<polygon class="PCdrawing" points="1563.6,1808 1663.6,1808 1663.6,1760 1563.6,1760 1563.6,1808"/>
<polygon class="PCdrawing" points="1155.6,1760 1255.6,1760 1255.6,1660 1155.6,1660 1155.6,1760"/>
<polygon class="PCdrawing" points="1155.6,1660 1255.6,1660 1255.6,1612 1155.6,1612 1155.6,1660"/>
<polygon class="PCdrawing" points="1155.6,1808 1255.6,1808 1255.6,1760 1155.6,1760 1155.6,1808"/>
<polygon class="PCdrawing" points="2175.6,1288 2239.6,1288 2239.6,888 2175.6,888 2175.6,1288"/>
<polygon class="PCdrawing" points="2175.6,888 2239.6,888 2239.6,840 2175.6,840 2175.6,888"/>
<polygon class="PCdrawing" points="2175.6,1336 2239.6,1336 2239.6,1288 2175.6,1288 2175.6,1336"/>
<polygon class="PCdrawing" points="375.6,1288 439.6,1288 439.6,888 375.6,888 375.6,1288"/>
<polygon class="PCdrawing" points="375.6,888 439.6,888 439.6,840 375.6,840 375.6,888"/>
<polygon class="PCdrawing" points="375.6,1336 439.6,1336 439.6,1288 375.6,1288 375.6,1336"/>
<polygon class="PCdrawing" points="951.6,1760 1051.6,1760 1051.6,1660 951.6,1660 951.6,1760"/>
<polygon class="PCdrawing" points="951.6,1660 1051.6,1660 1051.6,1612 951.6,1612 951.6,1660"/>
<polygon class="PCdrawing" points="951.6,1808 1051.6,1808 1051.6,1760 951.6,1760 951.6,1808"/>
<polygon class="PCdrawing" points="1767.6,1760 1867.6,1760 1867.6,1660 1767.6,1660 1767.6,1760"/>
<polygon class="PCdrawing" points="1767.6,1660 1867.6,1660 1867.6,1612 1767.6,1612 1767.6,1660"/>
<polygon class="PCdrawing" points="1767.6,1808 1867.6,1808 1867.6,1760 1767.6,1760 1767.6,1808"/>
<polygon class="PCdrawing" points="1359.6,1760 1459.6,1760 1459.6,1660 1359.6,1660 1359.6,1760"/>
<polygon class="PCdrawing" points="1359.6,1660 1459.6,1660 1459.6,1612 1359.6,1612 1359.6,1660"/>
<polygon class="PCdrawing" points="1359.6,1808 1459.6,1808 1459.6,1760 1359.6,1760 1359.6,1808"/>
<polygon class="PCdrawing" points="855.6,444 1255.6,444 1255.6,284 855.6,284 855.6,444"/>
<polygon class="PCdrawing" points="855.6,284 1255.6,284 1255.6,236 855.6,236 855.6,284"/>
<polygon class="PCdrawing" points="855.6,492 1255.6,492 1255.6,444 855.6,444 855.6,492"/>
<polygon class="PCdrawing" points="1863.6,444 2263.6,444 2263.6,284 1863.6,284 1863.6,444"/>
<polygon class="PCdrawing" points="1863.6,284 2263.6,284 2263.6,236 1863.6,236 1863.6,284"/>
<polygon class="PCdrawing" points="1863.6,492 2263.6,492 2263.6,444 1863.6,444 1863.6,492"/>
<polygon class="PCdrawing" points="543.6,1288 643.6,1288 643.6,888 543.6,888 543.6,1288"/>
<polygon class="PCdrawing" points="543.6,888 643.6,888 643.6,840 543.6,840 543.6,888"/>
<polygon class="PCdrawing" points="543.6,1336 643.6,1336 643.6,1288 543.6,1288 543.6,1336"/>
<polygon class="PCdrawing" points="1767.6,1288 1867.6,1288 1867.6,888 1767.6,888 1767.6,1288"/>
<polygon class="PCdrawing" points="1767.6,888 1867.6,888 1867.6,840 1767.6,840 1767.6,888"/>
<polygon class="PCdrawing" points="1767.6,1336 1867.6,1336 1867.6,1288 1767.6,1288 1767.6,1336"/>
<polygon class="PCdrawing" points="1359.6,1288 1459.6,1288 1459.6,888 1359.6,888 1359.6,1288"/>
<polygon class="PCdrawing" points="1359.6,888 1459.6,888 1459.6,840 1359.6,840 1359.6,888"/>
<polygon class="PCdrawing" points="1359.6,1336 1459.6,1336 1459.6,1288 1359.6,1288 1359.6,1336"/>
<polygon class="PCdrawing" points="951.6,1288 1051.6,1288 1051.6,888 951.6,888 951.6,1288"/>
<polygon class="PCdrawing" points="951.6,888 1051.6,888 1051.6,840 951.6,840 951.6,888"/>
<polygon class="PCdrawing" points="951.6,1336 1051.6,1336 1051.6,1288 951.6,1288 951.6,1336"/>
<polygon class="PCdrawing" points="1971.6,1288 2071.6,1288 2071.6,888 1971.6,888 1971.6,1288"/>
<polygon class="PCdrawing" points="1971.6,888 2071.6,888 2071.6,840 1971.6,840 1971.6,888"/>
<polygon class="PCdrawing" points="1971.6,1336 2071.6,1336 2071.6,1288 1971.6,1288 1971.6,1336"/>
<polygon class="PCdrawing" points="747.6,1288 847.6,1288 847.6,888 747.6,888 747.6,1288"/>
<polygon class="PCdrawing" points="747.6,888 847.6,888 847.6,840 747.6,840 747.6,888"/>
<polygon class="PCdrawing" points="747.6,1336 847.6,1336 847.6,1288 747.6,1288 747.6,1336"/>
<polygon class="PCdrawing" points="1155.6,1288 1255.6,1288 1255.6,888 1155.6,888 1155.6,1288"/>
<polygon class="PCdrawing" points="1155.6,888 1255.6,888 1255.6,840 1155.6,840 1155.6,888"/>
<polygon class="PCdrawing" points="1155.6,1336 1255.6,1336 1255.6,1288 1155.6,1288 1155.6,1336"/>
<polygon class="PCdrawing" points="1563.6,1288 1663.6,1288 1663.6,888 1563.6,888 1563.6,1288"/>
<polygon class="PCdrawing" points="1563.6,888 1663.6,888 1663.6,840 1563.6,840 1563.6,888"/>
<polygon class="PCdrawing" points="1563.6,1336 1663.6,1336 1663.6,1288 1563.6,1288 1563.6,1336"/>
<polygon class="PCdrawing" points="495.6,1844 559.6,1844 559.6,1780 495.6,1780 495.6,1844"/>
<polygon class="PCdrawing" points="2055.6,1844 2119.6,1844 2119.6,1780 2055.6,1780 2055.6,1844"/>
<polygon class="PCdrawing" points="1537.6,1612 1689.6,1612 1689.6,1548 1537.6,1548 1537.6,1612"/>
<polygon class="PCdrawing" points="1741.6,1612 1893.6,1612 1893.6,1548 1741.6,1548 1741.6,1612"/>
<polygon class="PCdrawing" points="1123.6,1612 1275.6,1612 1275.6,1548 1123.6,1548 1123.6,1612"/>
<polygon class="PCdrawing" points="1327.6,1612 1479.6,1612 1479.6,1548 1327.6,1548 1327.6,1612"/>
<polygon class="PCdrawing" points="923.6,1612 1075.6,1612 1075.6,1548 923.6,1548 923.6,1612"/>
<polygon class="PCdrawing" points="719.6,1612 871.6,1612 871.6,1548 719.6,1548 719.6,1612"/>
<polygon class="PCdrawing" points="1743.6,1476 1895.6,1476 1895.6,1412 1743.6,1412 1743.6,1476"/>
<polygon class="PCdrawing" points="1539.6,1476 1691.6,1476 1691.6,1412 1539.6,1412 1539.6,1476"/>
<polygon class="PCdrawing" points="519.6,732 671.6,732 671.6,668 519.6,668 519.6,732"/>
<polygon class="PCdrawing" points="287.6,1380 439.6,1380 439.6,1316 287.6,1316 287.6,1380"/>
<polygon class="PCdrawing" points="1127.6,732 1279.6,732 1279.6,668 1127.6,668 1127.6,732"/>
<polygon class="PCdrawing" points="1335.6,732 1487.6,732 1487.6,668 1335.6,668 1335.6,732"/>
<polygon class="PCdrawing" points="1943.6,732 2095.6,732 2095.6,668 1943.6,668 1943.6,732"/>
<polygon class="PCdrawing" points="719.6,1476 871.6,1476 871.6,1412 719.6,1412 719.6,1476"/>
<polygon class="PCdrawing" points="2175.6,1380 2327.6,1380 2327.6,1316 2175.6,1316 2175.6,1380"/>
<polygon class="PCdrawing" points="2375.6,534 2527.6,534 2527.6,470 2375.6,470 2375.6,534"/>
<polygon class="PCdrawing" points="923.6,1476 1075.6,1476 1075.6,1412 923.6,1412 923.6,1476"/>
<polygon class="PCdrawing" points="87.6,534 239.6,534 239.6,470 87.6,470 87.6,534"/>
<polygon class="PCdrawing" points="387.6,620 715.6,620 715.6,556 387.6,556 387.6,620"/>
<polygon class="PCdrawing" points="1395.6,620 1723.6,620 1723.6,556 1395.6,556 1395.6,620"/>
<polygon class="PCdrawing" points="891.6,620 1219.6,620 1219.6,556 891.6,556 891.6,620"/>
<polygon class="PCdrawing" points="1899.6,620 2227.6,620 2227.6,556 1899.6,556 1899.6,620"/>
<polygon class="M1drawing" points="103.6,1488 215.6,1488 215.6,1400 103.6,1400 103.6,1488"/>
<polygon class="M1drawing" points="871.6,1284 927.6,1284 927.6,780 871.6,780 871.6,1284"/>
<polygon class="M1drawing" points="1687.6,1284 1743.6,1284 1743.6,780 1687.6,780 1687.6,1284"/>
<polygon class="M1drawing" points="871.6,836 1743.6,836 1743.6,780 871.6,780 871.6,836"/>
<polygon class="M1drawing" points="463.6,1284 519.6,1284 519.6,892 463.6,892 463.6,1284"/>
<polygon class="M1drawing" points="2095.6,1284 2151.6,1284 2151.6,892 2095.6,892 2095.6,1284"/>
<polygon class="M1drawing" points="1279.6,1284 1335.6,1284 1335.6,892 1279.6,892 1279.6,1284"/>
<polygon class="M1drawing" points="667.6,1380 723.6,1380 723.6,892 667.6,892 667.6,1380"/>
<polygon class="M1drawing" points="1075.6,1380 1131.6,1380 1131.6,892 1075.6,892 1075.6,1380"/>
<polygon class="M1drawing" points="1891.6,1380 1947.6,1380 1947.6,892 1891.6,892 1891.6,1380"/>
<polygon class="M1drawing" points="1483.6,1380 1539.6,1380 1539.6,892 1483.6,892 1483.6,1380"/>
<polygon class="M1drawing" points="667.6,1380 1947.6,1380 1947.6,1324 667.6,1324 667.6,1380"/>
<polygon class="M1drawing" points="103.6,1468 1887.6,1468 1887.6,1420 103.6,1420 103.6,1468"/>
<polygon class="M1drawing" points="271.6,616 327.6,616 327.6,328 271.6,328 271.6,616"/>
<polygon class="M1drawing" points="2287.6,616 2343.6,616 2343.6,328 2287.6,328 2287.6,616"/>
<polygon class="M1drawing" points="89.6,724 2071.6,724 2071.6,676 89.6,676 89.6,724"/>
<polygon class="M1drawing" points="89.6,744 201.6,744 201.6,656 89.6,656 89.6,744"/>
<polygon class="M1drawing" points="775.6,400 831.6,400 831.6,108 775.6,108 775.6,400"/>
<polygon class="M1drawing" points="1783.6,400 1839.6,400 1839.6,108 1783.6,108 1783.6,400"/>
<polygon class="M1drawing" points="667.6,1988 723.6,1988 723.6,1674 667.6,1674 667.6,1988"/>
<polygon class="M1drawing" points="1075.6,1988 1131.6,1988 1131.6,1674 1075.6,1674 1075.6,1988"/>
<polygon class="M1drawing" points="1483.6,1988 1539.6,1988 1539.6,1674 1483.6,1674 1483.6,1988"/>
<polygon class="M1drawing" points="1891.6,1988 1947.6,1988 1947.6,1674 1891.6,1674 1891.6,1988"/>
<polygon class="M1drawing" points="1279.6,1746 1335.6,1746 1335.6,1556 1279.6,1556 1279.6,1746"/>
<polygon class="M1drawing" points="7.6,2092 2607.6,2092 2607.6,1876 7.6,1876 7.6,2092"/>
<polygon class="M1drawing" points="7.6,200 2607.6,200 2607.6,0 7.6,0 7.6,200"/>
<polygon class="M1drawing" points="2507.6,400 2507.6,328 2459.6,328 2459.6,400 "/>
<polygon class="M1drawing" points="2455.6,684 2511.6,684 2511.6,442 2455.6,442 2455.6,684"/>
<polygon class="M1drawing" points="103.6,1624 215.6,1624 215.6,1536 103.6,1536 103.6,1624"/>
<polygon class="M1drawing" points="1279.6,836 2489.6,836 2489.6,780 1279.6,780 1279.6,836"/>
<polygon class="M1drawing" points="871.6,1808 927.6,1808 927.6,1668 871.6,1668 871.6,1808"/>
<polygon class="M1drawing" points="1687.6,1808 1743.6,1808 1743.6,1674 1687.6,1674 1687.6,1808"/>
<polygon class="M1drawing" points="271.6,616 2343.6,616 2343.6,560 271.6,560 271.6,616"/>
<polygon class="M1drawing" points="295.6,1372 351.6,1372 351.6,892 295.6,892 295.6,1372"/>
<polygon class="M1drawing" points="1279.6,520 1335.6,520 1335.6,328 1279.6,328 1279.6,520"/>
<polygon class="M1drawing" points="2455.6,526 2511.6,526 2511.6,138 2455.6,138 2455.6,526"/>
<polygon class="M1drawing" points="103.6,526 159.6,526 159.6,138 103.6,138 103.6,526"/>
<polygon class="M1drawing" points="2059.6,1988 2115.6,1988 2115.6,1674 2059.6,1674 2059.6,1988"/>
<polygon class="M1drawing" points="499.6,1988 555.6,1988 555.6,1674 499.6,1674 499.6,1988"/>
<polygon class="M1drawing" points="2263.6,1372 2319.6,1372 2319.6,892 2263.6,892 2263.6,1372"/>
<polygon class="M1drawing" points="103.6,1604 1887.6,1604 1887.6,1556 103.6,1556 103.6,1604"/>
<polygon class="M1drawing" points="719.6,1746 719.6,1674 671.6,1674 671.6,1746 "/>
<polygon class="M1drawing" points="551.6,1746 551.6,1674 503.6,1674 503.6,1746 "/>
<polygon class="M1drawing" points="107.6,400 107.6,328 155.6,328 155.6,400 "/>
<polygon class="M1drawing" points="275.6,400 275.6,328 323.6,328 323.6,400 "/>
<polygon class="M1drawing" points="2111.6,1746 2111.6,1674 2063.6,1674 2063.6,1746 "/>
<polygon class="M1drawing" points="1835.6,400 1835.6,328 1787.6,328 1787.6,400 "/>
<polygon class="M1drawing" points="827.6,400 827.6,328 779.6,328 779.6,400 "/>
<polygon class="M1drawing" points="875.6,1746 875.6,1674 923.6,1674 923.6,1746 "/>
<polygon class="M1drawing" points="1691.6,1746 1691.6,1674 1739.6,1674 1739.6,1746 "/>
<polygon class="M1drawing" points="1283.6,1746 1283.6,1674 1331.6,1674 1331.6,1746 "/>
<polygon class="M1drawing" points="2315.6,1284 2315.6,892 2267.6,892 2267.6,1284 "/>
<polygon class="M1drawing" points="2439.6,684 2439.6,636 2511.6,636 2511.6,684 "/>
<polygon class="M1drawing" points="299.6,1284 299.6,892 347.6,892 347.6,1284 "/>
<polygon class="M1drawing" points="467.6,1284 467.6,892 515.6,892 515.6,1284 "/>
<polygon class="M1drawing" points="1127.6,1746 1127.6,1674 1079.6,1674 1079.6,1746 "/>
<polygon class="M1drawing" points="1943.6,1746 1943.6,1674 1895.6,1674 1895.6,1746 "/>
<polygon class="M1drawing" points="1535.6,1746 1535.6,1674 1487.6,1674 1487.6,1746 "/>
<polygon class="M1drawing" points="1283.6,400 1283.6,328 1331.6,328 1331.6,400 "/>
<polygon class="M1drawing" points="2291.6,400 2291.6,328 2339.6,328 2339.6,400 "/>
<polygon class="M1drawing" points="719.6,1284 719.6,892 671.6,892 671.6,1284 "/>
<polygon class="M1drawing" points="1943.6,1284 1943.6,892 1895.6,892 1895.6,1284 "/>
<polygon class="M1drawing" points="1535.6,1284 1535.6,892 1487.6,892 1487.6,1284 "/>
<polygon class="M1drawing" points="1127.6,1284 1127.6,892 1079.6,892 1079.6,1284 "/>
<polygon class="M1drawing" points="2099.6,1284 2099.6,892 2147.6,892 2147.6,1284 "/>
<polygon class="M1drawing" points="875.6,1284 875.6,892 923.6,892 923.6,1284 "/>
<polygon class="M1drawing" points="1283.6,1284 1283.6,892 1331.6,892 1331.6,1284 "/>
<polygon class="M1drawing" points="1691.6,1284 1691.6,892 1739.6,892 1739.6,1284 "/>
<polygon class="M1drawing" points="1283.6,944 1331.6,944 1331.6,896 1283.6,896 1283.6,944"/>
<polygon class="M1drawing" points="2099.6,944 2147.6,944 2147.6,896 2099.6,896 2099.6,944"/>
<polygon class="M1drawing" points="467.6,944 515.6,944 515.6,896 467.6,896 467.6,944"/>
<polygon class="M1drawing" points="503.6,1836 551.6,1836 551.6,1788 503.6,1788 503.6,1836"/>
<polygon class="M1drawing" points="2063.6,1836 2111.6,1836 2111.6,1788 2063.6,1788 2063.6,1836"/>
<polygon class="M1drawing" points="1545.6,1604 1681.6,1604 1681.6,1556 1545.6,1556 1545.6,1604"/>
<polygon class="M1drawing" points="1749.6,1604 1885.6,1604 1885.6,1556 1749.6,1556 1749.6,1604"/>
<polygon class="M1drawing" points="1131.6,1604 1267.6,1604 1267.6,1556 1131.6,1556 1131.6,1604"/>
<polygon class="M1drawing" points="1335.6,1604 1471.6,1604 1471.6,1556 1335.6,1556 1335.6,1604"/>
<polygon class="M1drawing" points="931.6,1604 1067.6,1604 1067.6,1556 931.6,1556 931.6,1604"/>
<polygon class="M1drawing" points="727.6,1604 863.6,1604 863.6,1556 727.6,1556 727.6,1604"/>
<polygon class="M1drawing" points="1751.6,1468 1887.6,1468 1887.6,1420 1751.6,1420 1751.6,1468"/>
<polygon class="M1drawing" points="1547.6,1468 1683.6,1468 1683.6,1420 1547.6,1420 1547.6,1468"/>
<polygon class="M1drawing" points="527.6,724 663.6,724 663.6,676 527.6,676 527.6,724"/>
<polygon class="M1drawing" points="295.6,1372 431.6,1372 431.6,1324 295.6,1324 295.6,1372"/>
<polygon class="M1drawing" points="1135.6,724 1271.6,724 1271.6,676 1135.6,676 1135.6,724"/>
<polygon class="M1drawing" points="1343.6,724 1479.6,724 1479.6,676 1343.6,676 1343.6,724"/>
<polygon class="M1drawing" points="1951.6,724 2087.6,724 2087.6,676 1951.6,676 1951.6,724"/>
<polygon class="M1drawing" points="727.6,1468 863.6,1468 863.6,1420 727.6,1420 727.6,1468"/>
<polygon class="M1drawing" points="2183.6,1372 2319.6,1372 2319.6,1324 2183.6,1324 2183.6,1372"/>
<polygon class="M1drawing" points="2383.6,526 2519.6,526 2519.6,478 2383.6,478 2383.6,526"/>
<polygon class="M1drawing" points="931.6,1468 1067.6,1468 1067.6,1420 931.6,1420 931.6,1468"/>
<polygon class="M1drawing" points="95.6,526 231.6,526 231.6,478 95.6,478 95.6,526"/>
<polygon class="M1drawing" points="2171.6,1372 2331.6,1372 2331.6,1324 2171.6,1324 2171.6,1372"/>
<polygon class="M1drawing" points="1635.6,1376 1795.6,1376 1795.6,1328 1635.6,1328 1635.6,1376"/>
<polygon class="M1drawing" points="819.6,1376 979.6,1376 979.6,1328 819.6,1328 819.6,1376"/>
<polygon class="M1drawing" points="411.6,612 571.6,612 571.6,564 411.6,564 411.6,612"/>
<polygon class="M1drawing" points="1227.6,832 1387.6,832 1387.6,784 1227.6,784 1227.6,832"/>
<polygon class="M1drawing" points="2043.6,612 2203.6,612 2203.6,564 2043.6,564 2043.6,612"/>
<polygon class="M1drawing" points="283.6,1372 443.6,1372 443.6,1324 283.6,1324 283.6,1372"/>
<polygon class="M1drawing" points="1691.6,1804 1739.6,1804 1739.6,1644 1691.6,1644 1691.6,1804"/>
<polygon class="M1drawing" points="875.6,1804 923.6,1804 923.6,1644 875.6,1644 875.6,1804"/>
<polygon class="M1drawing" points="1283.6,516 1331.6,516 1331.6,356 1283.6,356 1283.6,516"/>
<polygon class="M1drawing" points="395.6,612 707.6,612 707.6,564 395.6,564 395.6,612"/>
<polygon class="M1drawing" points="1403.6,612 1715.6,612 1715.6,564 1403.6,564 1403.6,612"/>
<polygon class="M1drawing" points="899.6,612 1211.6,612 1211.6,564 899.6,564 899.6,612"/>
<polygon class="M1drawing" points="1907.6,612 2219.6,612 2219.6,564 1907.6,564 1907.6,612"/>
<polygon class="M1drawing" points="283.6,2056 443.6,2056 443.6,1896 283.6,1896 283.6,2056"/>
<polygon class="M1drawing" points="2171.6,2056 2331.6,2056 2331.6,1896 2171.6,1896 2171.6,2056"/>
<polygon class="M1drawing" points="2303.6,2048 2303.6,2000 2455.6,2000 2455.6,2048 "/>
<polygon class="M1drawing" points="2087.6,2048 2087.6,2000 2239.6,2000 2239.6,2048 "/>
<polygon class="M1drawing" points="1871.6,2048 1871.6,2000 2023.6,2000 2023.6,2048 "/>
<polygon class="M1drawing" points="1655.6,2048 1655.6,2000 1807.6,2000 1807.6,2048 "/>
<polygon class="M1drawing" points="1439.6,2048 1439.6,2000 1591.6,2000 1591.6,2048 "/>
<polygon class="M1drawing" points="1223.6,2048 1223.6,2000 1375.6,2000 1375.6,2048 "/>
<polygon class="M1drawing" points="1007.6,2048 1007.6,2000 1159.6,2000 1159.6,2048 "/>
<polygon class="M1drawing" points="791.6,2048 791.6,2000 943.6,2000 943.6,2048 "/>
<polygon class="M1drawing" points="575.6,2048 575.6,2000 727.6,2000 727.6,2048 "/>
<polygon class="M1drawing" points="359.6,2048 359.6,2000 511.6,2000 511.6,2048 "/>
<polygon class="M1drawing" points="143.6,2048 143.6,2000 295.6,2000 295.6,2048 "/>
<polygon class="M1drawing" points="2265.6,152 2433.6,152 2433.6,104 2265.6,104 2265.6,152"/>
<polygon class="M1drawing" points="2025.6,152 2193.6,152 2193.6,104 2025.6,104 2025.6,152"/>
<polygon class="M1drawing" points="1785.6,152 1953.6,152 1953.6,104 1785.6,104 1785.6,152"/>
<polygon class="M1drawing" points="1545.6,152 1713.6,152 1713.6,104 1545.6,104 1545.6,152"/>
<polygon class="M1drawing" points="1305.6,152 1473.6,152 1473.6,104 1305.6,104 1305.6,152"/>
<polygon class="M1drawing" points="1065.6,152 1233.6,152 1233.6,104 1065.6,104 1065.6,152"/>
<polygon class="M1drawing" points="825.6,152 993.6,152 993.6,104 825.6,104 825.6,152"/>
<polygon class="M1drawing" points="585.6,152 753.6,152 753.6,104 585.6,104 585.6,152"/>
<polygon class="M1drawing" points="345.6,152 513.6,152 513.6,104 345.6,104 345.6,152"/>
<polygon class="M1drawing" points="105.6,152 273.6,152 273.6,104 105.6,104 105.6,152"/>
<polygon class="CAdrawing" points="2463.6,384 2503.6,384 2503.6,344 2463.6,344 2463.6,384"/>
<polygon class="CAdrawing" points="675.6,1730 715.6,1730 715.6,1690 675.6,1690 675.6,1730"/>
<polygon class="CAdrawing" points="507.6,1730 547.6,1730 547.6,1690 507.6,1690 507.6,1730"/>
<polygon class="CAdrawing" points="111.6,384 151.6,384 151.6,344 111.6,344 111.6,384"/>
<polygon class="CAdrawing" points="279.6,384 319.6,384 319.6,344 279.6,344 279.6,384"/>
<polygon class="CAdrawing" points="2067.6,1730 2107.6,1730 2107.6,1690 2067.6,1690 2067.6,1730"/>
<polygon class="CAdrawing" points="1791.6,384 1831.6,384 1831.6,344 1791.6,344 1791.6,384"/>
<polygon class="CAdrawing" points="783.6,384 823.6,384 823.6,344 783.6,344 783.6,384"/>
<polygon class="CAdrawing" points="879.6,1730 919.6,1730 919.6,1690 879.6,1690 879.6,1730"/>
<polygon class="CAdrawing" points="1695.6,1730 1735.6,1730 1735.6,1690 1695.6,1690 1695.6,1730"/>
<polygon class="CAdrawing" points="1287.6,1730 1327.6,1730 1327.6,1690 1287.6,1690 1287.6,1730"/>
<polygon class="CAdrawing" points="2271.6,976 2311.6,976 2311.6,936 2271.6,936 2271.6,976"/>
<polygon class="CAdrawing" points="2271.6,1064 2311.6,1064 2311.6,1024 2271.6,1024 2271.6,1064"/>
<polygon class="CAdrawing" points="2271.6,1152 2311.6,1152 2311.6,1112 2271.6,1112 2271.6,1152"/>
<polygon class="CAdrawing" points="2271.6,1240 2311.6,1240 2311.6,1200 2271.6,1200 2271.6,1240"/>
<polygon class="CAdrawing" points="2455.6,680 2495.6,680 2495.6,640 2455.6,640 2455.6,680"/>
<polygon class="CAdrawing" points="303.6,976 343.6,976 343.6,936 303.6,936 303.6,976"/>
<polygon class="CAdrawing" points="303.6,1064 343.6,1064 343.6,1024 303.6,1024 303.6,1064"/>
<polygon class="CAdrawing" points="303.6,1152 343.6,1152 343.6,1112 303.6,1112 303.6,1152"/>
<polygon class="CAdrawing" points="303.6,1240 343.6,1240 343.6,1200 303.6,1200 303.6,1240"/>
<polygon class="CAdrawing" points="471.6,976 511.6,976 511.6,936 471.6,936 471.6,976"/>
<polygon class="CAdrawing" points="471.6,1064 511.6,1064 511.6,1024 471.6,1024 471.6,1064"/>
<polygon class="CAdrawing" points="471.6,1152 511.6,1152 511.6,1112 471.6,1112 471.6,1152"/>
<polygon class="CAdrawing" points="471.6,1240 511.6,1240 511.6,1200 471.6,1200 471.6,1240"/>
<polygon class="CAdrawing" points="1083.6,1730 1123.6,1730 1123.6,1690 1083.6,1690 1083.6,1730"/>
<polygon class="CAdrawing" points="1899.6,1730 1939.6,1730 1939.6,1690 1899.6,1690 1899.6,1730"/>
<polygon class="CAdrawing" points="1491.6,1730 1531.6,1730 1531.6,1690 1491.6,1690 1491.6,1730"/>
<polygon class="CAdrawing" points="1287.6,384 1327.6,384 1327.6,344 1287.6,344 1287.6,384"/>
<polygon class="CAdrawing" points="2295.6,384 2335.6,384 2335.6,344 2295.6,344 2295.6,384"/>
<polygon class="CAdrawing" points="675.6,976 715.6,976 715.6,936 675.6,936 675.6,976"/>
<polygon class="CAdrawing" points="675.6,1064 715.6,1064 715.6,1024 675.6,1024 675.6,1064"/>
<polygon class="CAdrawing" points="675.6,1152 715.6,1152 715.6,1112 675.6,1112 675.6,1152"/>
<polygon class="CAdrawing" points="675.6,1240 715.6,1240 715.6,1200 675.6,1200 675.6,1240"/>
<polygon class="CAdrawing" points="1899.6,976 1939.6,976 1939.6,936 1899.6,936 1899.6,976"/>
<polygon class="CAdrawing" points="1899.6,1064 1939.6,1064 1939.6,1024 1899.6,1024 1899.6,1064"/>
<polygon class="CAdrawing" points="1899.6,1152 1939.6,1152 1939.6,1112 1899.6,1112 1899.6,1152"/>
<polygon class="CAdrawing" points="1899.6,1240 1939.6,1240 1939.6,1200 1899.6,1200 1899.6,1240"/>
<polygon class="CAdrawing" points="1491.6,976 1531.6,976 1531.6,936 1491.6,936 1491.6,976"/>
<polygon class="CAdrawing" points="1491.6,1064 1531.6,1064 1531.6,1024 1491.6,1024 1491.6,1064"/>
<polygon class="CAdrawing" points="1491.6,1152 1531.6,1152 1531.6,1112 1491.6,1112 1491.6,1152"/>
<polygon class="CAdrawing" points="1491.6,1240 1531.6,1240 1531.6,1200 1491.6,1200 1491.6,1240"/>
<polygon class="CAdrawing" points="1083.6,976 1123.6,976 1123.6,936 1083.6,936 1083.6,976"/>
<polygon class="CAdrawing" points="1083.6,1064 1123.6,1064 1123.6,1024 1083.6,1024 1083.6,1064"/>
<polygon class="CAdrawing" points="1083.6,1152 1123.6,1152 1123.6,1112 1083.6,1112 1083.6,1152"/>
<polygon class="CAdrawing" points="1083.6,1240 1123.6,1240 1123.6,1200 1083.6,1200 1083.6,1240"/>
<polygon class="CAdrawing" points="2103.6,976 2143.6,976 2143.6,936 2103.6,936 2103.6,976"/>
<polygon class="CAdrawing" points="2103.6,1064 2143.6,1064 2143.6,1024 2103.6,1024 2103.6,1064"/>
<polygon class="CAdrawing" points="2103.6,1152 2143.6,1152 2143.6,1112 2103.6,1112 2103.6,1152"/>
<polygon class="CAdrawing" points="2103.6,1240 2143.6,1240 2143.6,1200 2103.6,1200 2103.6,1240"/>
<polygon class="CAdrawing" points="879.6,976 919.6,976 919.6,936 879.6,936 879.6,976"/>
<polygon class="CAdrawing" points="879.6,1064 919.6,1064 919.6,1024 879.6,1024 879.6,1064"/>
<polygon class="CAdrawing" points="879.6,1152 919.6,1152 919.6,1112 879.6,1112 879.6,1152"/>
<polygon class="CAdrawing" points="879.6,1240 919.6,1240 919.6,1200 879.6,1200 879.6,1240"/>
<polygon class="CAdrawing" points="1287.6,976 1327.6,976 1327.6,936 1287.6,936 1287.6,976"/>
<polygon class="CAdrawing" points="1287.6,1064 1327.6,1064 1327.6,1024 1287.6,1024 1287.6,1064"/>
<polygon class="CAdrawing" points="1287.6,1152 1327.6,1152 1327.6,1112 1287.6,1112 1287.6,1152"/>
<polygon class="CAdrawing" points="1287.6,1240 1327.6,1240 1327.6,1200 1287.6,1200 1287.6,1240"/>
<polygon class="CAdrawing" points="1695.6,976 1735.6,976 1735.6,936 1695.6,936 1695.6,976"/>
<polygon class="CAdrawing" points="1695.6,1064 1735.6,1064 1735.6,1024 1695.6,1024 1695.6,1064"/>
<polygon class="CAdrawing" points="1695.6,1152 1735.6,1152 1735.6,1112 1695.6,1112 1695.6,1152"/>
<polygon class="CAdrawing" points="1695.6,1240 1735.6,1240 1735.6,1200 1695.6,1200 1695.6,1240"/>
<polygon class="CAdrawing" points="507.6,1832 547.6,1832 547.6,1792 507.6,1792 507.6,1832"/>
<polygon class="CAdrawing" points="2067.6,1832 2107.6,1832 2107.6,1792 2067.6,1792 2067.6,1832"/>
<polygon class="CAdrawing" points="1549.6,1600 1589.6,1600 1589.6,1560 1549.6,1560 1549.6,1600"/>
<polygon class="CAdrawing" points="1637.6,1600 1677.6,1600 1677.6,1560 1637.6,1560 1637.6,1600"/>
<polygon class="CAdrawing" points="1753.6,1600 1793.6,1600 1793.6,1560 1753.6,1560 1753.6,1600"/>
<polygon class="CAdrawing" points="1841.6,1600 1881.6,1600 1881.6,1560 1841.6,1560 1841.6,1600"/>
<polygon class="CAdrawing" points="1135.6,1600 1175.6,1600 1175.6,1560 1135.6,1560 1135.6,1600"/>
<polygon class="CAdrawing" points="1223.6,1600 1263.6,1600 1263.6,1560 1223.6,1560 1223.6,1600"/>
<polygon class="CAdrawing" points="1339.6,1600 1379.6,1600 1379.6,1560 1339.6,1560 1339.6,1600"/>
<polygon class="CAdrawing" points="1427.6,1600 1467.6,1600 1467.6,1560 1427.6,1560 1427.6,1600"/>
<polygon class="CAdrawing" points="935.6,1600 975.6,1600 975.6,1560 935.6,1560 935.6,1600"/>
<polygon class="CAdrawing" points="1023.6,1600 1063.6,1600 1063.6,1560 1023.6,1560 1023.6,1600"/>
<polygon class="CAdrawing" points="731.6,1600 771.6,1600 771.6,1560 731.6,1560 731.6,1600"/>
<polygon class="CAdrawing" points="819.6,1600 859.6,1600 859.6,1560 819.6,1560 819.6,1600"/>
<polygon class="CAdrawing" points="1755.6,1464 1795.6,1464 1795.6,1424 1755.6,1424 1755.6,1464"/>
<polygon class="CAdrawing" points="1843.6,1464 1883.6,1464 1883.6,1424 1843.6,1424 1843.6,1464"/>
<polygon class="CAdrawing" points="1551.6,1464 1591.6,1464 1591.6,1424 1551.6,1424 1551.6,1464"/>
<polygon class="CAdrawing" points="1639.6,1464 1679.6,1464 1679.6,1424 1639.6,1424 1639.6,1464"/>
<polygon class="CAdrawing" points="531.6,720 571.6,720 571.6,680 531.6,680 531.6,720"/>
<polygon class="CAdrawing" points="619.6,720 659.6,720 659.6,680 619.6,680 619.6,720"/>
<polygon class="CAdrawing" points="299.6,1368 339.6,1368 339.6,1328 299.6,1328 299.6,1368"/>
<polygon class="CAdrawing" points="387.6,1368 427.6,1368 427.6,1328 387.6,1328 387.6,1368"/>
<polygon class="CAdrawing" points="1139.6,720 1179.6,720 1179.6,680 1139.6,680 1139.6,720"/>
<polygon class="CAdrawing" points="1227.6,720 1267.6,720 1267.6,680 1227.6,680 1227.6,720"/>
<polygon class="CAdrawing" points="1347.6,720 1387.6,720 1387.6,680 1347.6,680 1347.6,720"/>
<polygon class="CAdrawing" points="1435.6,720 1475.6,720 1475.6,680 1435.6,680 1435.6,720"/>
<polygon class="CAdrawing" points="1955.6,720 1995.6,720 1995.6,680 1955.6,680 1955.6,720"/>
<polygon class="CAdrawing" points="2043.6,720 2083.6,720 2083.6,680 2043.6,680 2043.6,720"/>
<polygon class="CAdrawing" points="731.6,1464 771.6,1464 771.6,1424 731.6,1424 731.6,1464"/>
<polygon class="CAdrawing" points="819.6,1464 859.6,1464 859.6,1424 819.6,1424 819.6,1464"/>
<polygon class="CAdrawing" points="2275.6,1368 2315.6,1368 2315.6,1328 2275.6,1328 2275.6,1368"/>
<polygon class="CAdrawing" points="2187.6,1368 2227.6,1368 2227.6,1328 2187.6,1328 2187.6,1368"/>
<polygon class="CAdrawing" points="2475.6,522 2515.6,522 2515.6,482 2475.6,482 2475.6,522"/>
<polygon class="CAdrawing" points="2387.6,522 2427.6,522 2427.6,482 2387.6,482 2387.6,522"/>
<polygon class="CAdrawing" points="935.6,1464 975.6,1464 975.6,1424 935.6,1424 935.6,1464"/>
<polygon class="CAdrawing" points="1023.6,1464 1063.6,1464 1063.6,1424 1023.6,1424 1023.6,1464"/>
<polygon class="CAdrawing" points="99.6,522 139.6,522 139.6,482 99.6,482 99.6,522"/>
<polygon class="CAdrawing" points="187.6,522 227.6,522 227.6,482 187.6,482 187.6,522"/>
<polygon class="CAdrawing" points="399.6,608 439.6,608 439.6,568 399.6,568 399.6,608"/>
<polygon class="CAdrawing" points="487.6,608 527.6,608 527.6,568 487.6,568 487.6,608"/>
<polygon class="CAdrawing" points="575.6,608 615.6,608 615.6,568 575.6,568 575.6,608"/>
<polygon class="CAdrawing" points="663.6,608 703.6,608 703.6,568 663.6,568 663.6,608"/>
<polygon class="CAdrawing" points="1407.6,608 1447.6,608 1447.6,568 1407.6,568 1407.6,608"/>
<polygon class="CAdrawing" points="1495.6,608 1535.6,608 1535.6,568 1495.6,568 1495.6,608"/>
<polygon class="CAdrawing" points="1583.6,608 1623.6,608 1623.6,568 1583.6,568 1583.6,608"/>
<polygon class="CAdrawing" points="1671.6,608 1711.6,608 1711.6,568 1671.6,568 1671.6,608"/>
<polygon class="CAdrawing" points="903.6,608 943.6,608 943.6,568 903.6,568 903.6,608"/>
<polygon class="CAdrawing" points="991.6,608 1031.6,608 1031.6,568 991.6,568 991.6,608"/>
<polygon class="CAdrawing" points="1079.6,608 1119.6,608 1119.6,568 1079.6,568 1079.6,608"/>
<polygon class="CAdrawing" points="1167.6,608 1207.6,608 1207.6,568 1167.6,568 1167.6,608"/>
<polygon class="CAdrawing" points="1911.6,608 1951.6,608 1951.6,568 1911.6,568 1911.6,608"/>
<polygon class="CAdrawing" points="1999.6,608 2039.6,608 2039.6,568 1999.6,568 1999.6,608"/>
<polygon class="CAdrawing" points="2087.6,608 2127.6,608 2127.6,568 2087.6,568 2087.6,608"/>
<polygon class="CAdrawing" points="2175.6,608 2215.6,608 2215.6,568 2175.6,568 2175.6,608"/>
<polygon class="CAdrawing" points="2319.6,2044 2359.6,2044 2359.6,2004 2319.6,2004 2319.6,2044"/>
<polygon class="CAdrawing" points="2103.6,2044 2143.6,2044 2143.6,2004 2103.6,2004 2103.6,2044"/>
<polygon class="CAdrawing" points="1887.6,2044 1927.6,2044 1927.6,2004 1887.6,2004 1887.6,2044"/>
<polygon class="CAdrawing" points="1671.6,2044 1711.6,2044 1711.6,2004 1671.6,2004 1671.6,2044"/>
<polygon class="CAdrawing" points="1455.6,2044 1495.6,2044 1495.6,2004 1455.6,2004 1455.6,2044"/>
<polygon class="CAdrawing" points="1239.6,2044 1279.6,2044 1279.6,2004 1239.6,2004 1239.6,2044"/>
<polygon class="CAdrawing" points="1023.6,2044 1063.6,2044 1063.6,2004 1023.6,2004 1023.6,2044"/>
<polygon class="CAdrawing" points="807.6,2044 847.6,2044 847.6,2004 807.6,2004 807.6,2044"/>
<polygon class="CAdrawing" points="591.6,2044 631.6,2044 631.6,2004 591.6,2004 591.6,2044"/>
<polygon class="CAdrawing" points="375.6,2044 415.6,2044 415.6,2004 375.6,2004 375.6,2044"/>
<polygon class="CAdrawing" points="159.6,2044 199.6,2044 199.6,2004 159.6,2004 159.6,2044"/>
<polygon class="CAdrawing" points="2281.6,148 2321.6,148 2321.6,108 2281.6,108 2281.6,148"/>
<polygon class="CAdrawing" points="2369.6,148 2409.6,148 2409.6,108 2369.6,108 2369.6,148"/>
<polygon class="CAdrawing" points="2281.6,148 2321.6,148 2321.6,108 2281.6,108 2281.6,148"/>
<polygon class="CAdrawing" points="2369.6,148 2409.6,148 2409.6,108 2369.6,108 2369.6,148"/>
<polygon class="CAdrawing" points="2041.6,148 2081.6,148 2081.6,108 2041.6,108 2041.6,148"/>
<polygon class="CAdrawing" points="2129.6,148 2169.6,148 2169.6,108 2129.6,108 2129.6,148"/>
<polygon class="CAdrawing" points="2041.6,148 2081.6,148 2081.6,108 2041.6,108 2041.6,148"/>
<polygon class="CAdrawing" points="2129.6,148 2169.6,148 2169.6,108 2129.6,108 2129.6,148"/>
<polygon class="CAdrawing" points="1801.6,148 1841.6,148 1841.6,108 1801.6,108 1801.6,148"/>
<polygon class="CAdrawing" points="1889.6,148 1929.6,148 1929.6,108 1889.6,108 1889.6,148"/>
<polygon class="CAdrawing" points="1801.6,148 1841.6,148 1841.6,108 1801.6,108 1801.6,148"/>
<polygon class="CAdrawing" points="1889.6,148 1929.6,148 1929.6,108 1889.6,108 1889.6,148"/>
<polygon class="CAdrawing" points="1561.6,148 1601.6,148 1601.6,108 1561.6,108 1561.6,148"/>
<polygon class="CAdrawing" points="1649.6,148 1689.6,148 1689.6,108 1649.6,108 1649.6,148"/>
<polygon class="CAdrawing" points="1561.6,148 1601.6,148 1601.6,108 1561.6,108 1561.6,148"/>
<polygon class="CAdrawing" points="1649.6,148 1689.6,148 1689.6,108 1649.6,108 1649.6,148"/>
<polygon class="CAdrawing" points="1321.6,148 1361.6,148 1361.6,108 1321.6,108 1321.6,148"/>
<polygon class="CAdrawing" points="1409.6,148 1449.6,148 1449.6,108 1409.6,108 1409.6,148"/>
<polygon class="CAdrawing" points="1321.6,148 1361.6,148 1361.6,108 1321.6,108 1321.6,148"/>
<polygon class="CAdrawing" points="1409.6,148 1449.6,148 1449.6,108 1409.6,108 1409.6,148"/>
<polygon class="CAdrawing" points="1081.6,148 1121.6,148 1121.6,108 1081.6,108 1081.6,148"/>
<polygon class="CAdrawing" points="1169.6,148 1209.6,148 1209.6,108 1169.6,108 1169.6,148"/>
<polygon class="CAdrawing" points="1081.6,148 1121.6,148 1121.6,108 1081.6,108 1081.6,148"/>
<polygon class="CAdrawing" points="1169.6,148 1209.6,148 1209.6,108 1169.6,108 1169.6,148"/>
<polygon class="CAdrawing" points="841.6,148 881.6,148 881.6,108 841.6,108 841.6,148"/>
<polygon class="CAdrawing" points="929.6,148 969.6,148 969.6,108 929.6,108 929.6,148"/>
<polygon class="CAdrawing" points="841.6,148 881.6,148 881.6,108 841.6,108 841.6,148"/>
<polygon class="CAdrawing" points="929.6,148 969.6,148 969.6,108 929.6,108 929.6,148"/>
<polygon class="CAdrawing" points="601.6,148 641.6,148 641.6,108 601.6,108 601.6,148"/>
<polygon class="CAdrawing" points="689.6,148 729.6,148 729.6,108 689.6,108 689.6,148"/>
<polygon class="CAdrawing" points="601.6,148 641.6,148 641.6,108 601.6,108 601.6,148"/>
<polygon class="CAdrawing" points="689.6,148 729.6,148 729.6,108 689.6,108 689.6,148"/>
<polygon class="CAdrawing" points="361.6,148 401.6,148 401.6,108 361.6,108 361.6,148"/>
<polygon class="CAdrawing" points="449.6,148 489.6,148 489.6,108 449.6,108 449.6,148"/>
<polygon class="CAdrawing" points="361.6,148 401.6,148 401.6,108 361.6,108 361.6,148"/>
<polygon class="CAdrawing" points="449.6,148 489.6,148 489.6,108 449.6,108 449.6,148"/>
<polygon class="CAdrawing" points="121.6,148 161.6,148 161.6,108 121.6,108 121.6,148"/>
<polygon class="CAdrawing" points="209.6,148 249.6,148 249.6,108 209.6,108 209.6,148"/>
<polygon class="CAdrawing" points="121.6,148 161.6,148 161.6,108 121.6,108 121.6,148"/>
<polygon class="CAdrawing" points="209.6,148 249.6,148 249.6,108 209.6,108 209.6,148"/>
<polygon class="M2drawing" points="1279.6,836 1335.6,836 1335.6,464 1279.6,464 1279.6,836"/>
<polygon class="M2drawing" points="463.6,948 2151.6,948 2151.6,892 463.6,892 463.6,948"/>
<polygon class="M2drawing" points="463.6,948 519.6,948 519.6,560 463.6,560 463.6,948"/>
<polygon class="M2drawing" points="335.6,1988 391.6,1988 391.6,1324 335.6,1324 335.6,1988"/>
<polygon class="M2drawing" points="2095.6,948 2151.6,948 2151.6,560 2095.6,560 2095.6,948"/>
<polygon class="M2drawing" points="1687.6,1732 1743.6,1732 1743.6,1324 1687.6,1324 1687.6,1732"/>
<polygon class="M2drawing" points="871.6,1732 927.6,1732 927.6,1324 871.6,1324 871.6,1732"/>
<polygon class="M2drawing" points="2223.6,1988 2279.6,1988 2279.6,1320 2223.6,1320 2223.6,1988"/>
<polygon class="M2drawing" points="1279.6,948 1335.6,948 1335.6,892 1279.6,892 1279.6,948"/>
<polygon class="M2drawing" points="2095.6,948 2151.6,948 2151.6,892 2095.6,892 2095.6,948"/>
<polygon class="M2drawing" points="463.6,948 519.6,948 519.6,892 463.6,892 463.6,948"/>
<polygon class="M2drawing" points="2167.6,1376 2335.6,1376 2335.6,1320 2167.6,1320 2167.6,1376"/>
<polygon class="M2drawing" points="1631.6,1380 1799.6,1380 1799.6,1324 1631.6,1324 1631.6,1380"/>
<polygon class="M2drawing" points="815.6,1380 983.6,1380 983.6,1324 815.6,1324 815.6,1380"/>
<polygon class="M2drawing" points="407.6,616 575.6,616 575.6,560 407.6,560 407.6,616"/>
<polygon class="M2drawing" points="1223.6,836 1391.6,836 1391.6,780 1223.6,780 1223.6,836"/>
<polygon class="M2drawing" points="2039.6,616 2207.6,616 2207.6,560 2039.6,560 2039.6,616"/>
<polygon class="M2drawing" points="279.6,1376 447.6,1376 447.6,1320 279.6,1320 279.6,1376"/>
<polygon class="M2drawing" points="1687.6,1808 1743.6,1808 1743.6,1640 1687.6,1640 1687.6,1808"/>
<polygon class="M2drawing" points="871.6,1808 927.6,1808 927.6,1640 871.6,1640 871.6,1808"/>
<polygon class="M2drawing" points="1279.6,520 1335.6,520 1335.6,352 1279.6,352 1279.6,520"/>
<polygon class="M2drawing" points="279.6,2060 447.6,2060 447.6,1892 279.6,1892 279.6,2060"/>
<polygon class="M2drawing" points="2167.6,2060 2335.6,2060 2335.6,1892 2167.6,1892 2167.6,2060"/>
<polygon class="V1drawing" points="1279.6,948 1335.6,948 1335.6,892 1279.6,892 1279.6,948"/>
<polygon class="V1drawing" points="2095.6,948 2151.6,948 2151.6,892 2095.6,892 2095.6,948"/>
<polygon class="V1drawing" points="463.6,948 519.6,948 519.6,892 463.6,892 463.6,948"/>
<polygon class="V1drawing" points="2167.6,1376 2223.6,1376 2223.6,1320 2167.6,1320 2167.6,1376"/>
<polygon class="V1drawing" points="2279.6,1376 2335.6,1376 2335.6,1320 2279.6,1320 2279.6,1376"/>
<polygon class="V1drawing" points="1631.6,1380 1687.6,1380 1687.6,1324 1631.6,1324 1631.6,1380"/>
<polygon class="V1drawing" points="1743.6,1380 1799.6,1380 1799.6,1324 1743.6,1324 1743.6,1380"/>
<polygon class="V1drawing" points="815.6,1380 871.6,1380 871.6,1324 815.6,1324 815.6,1380"/>
<polygon class="V1drawing" points="927.6,1380 983.6,1380 983.6,1324 927.6,1324 927.6,1380"/>
<polygon class="V1drawing" points="407.6,616 463.6,616 463.6,560 407.6,560 407.6,616"/>
<polygon class="V1drawing" points="519.6,616 575.6,616 575.6,560 519.6,560 519.6,616"/>
<polygon class="V1drawing" points="1223.6,836 1279.6,836 1279.6,780 1223.6,780 1223.6,836"/>
<polygon class="V1drawing" points="1335.6,836 1391.6,836 1391.6,780 1335.6,780 1335.6,836"/>
<polygon class="V1drawing" points="2039.6,616 2095.6,616 2095.6,560 2039.6,560 2039.6,616"/>
<polygon class="V1drawing" points="2151.6,616 2207.6,616 2207.6,560 2151.6,560 2151.6,616"/>
<polygon class="V1drawing" points="279.6,1376 335.6,1376 335.6,1320 279.6,1320 279.6,1376"/>
<polygon class="V1drawing" points="391.6,1376 447.6,1376 447.6,1320 391.6,1320 391.6,1376"/>
<polygon class="V1drawing" points="1687.6,1808 1743.6,1808 1743.6,1752 1687.6,1752 1687.6,1808"/>
<polygon class="V1drawing" points="1687.6,1696 1743.6,1696 1743.6,1640 1687.6,1640 1687.6,1696"/>
<polygon class="V1drawing" points="871.6,1808 927.6,1808 927.6,1752 871.6,1752 871.6,1808"/>
<polygon class="V1drawing" points="871.6,1696 927.6,1696 927.6,1640 871.6,1640 871.6,1696"/>
<polygon class="V1drawing" points="1279.6,520 1335.6,520 1335.6,464 1279.6,464 1279.6,520"/>
<polygon class="V1drawing" points="1279.6,408 1335.6,408 1335.6,352 1279.6,352 1279.6,408"/>
<polygon class="V1drawing" points="279.6,2060 335.6,2060 335.6,2004 279.6,2004 279.6,2060"/>
<polygon class="V1drawing" points="391.6,2060 447.6,2060 447.6,2004 391.6,2004 391.6,2060"/>
<polygon class="V1drawing" points="279.6,1948 335.6,1948 335.6,1892 279.6,1892 279.6,1948"/>
<polygon class="V1drawing" points="391.6,1948 447.6,1948 447.6,1892 391.6,1892 391.6,1948"/>
<polygon class="V1drawing" points="2167.6,2060 2223.6,2060 2223.6,2004 2167.6,2004 2167.6,2060"/>
<polygon class="V1drawing" points="2279.6,2060 2335.6,2060 2335.6,2004 2279.6,2004 2279.6,2060"/>
<polygon class="V1drawing" points="2167.6,1948 2223.6,1948 2223.6,1892 2167.6,1892 2167.6,1948"/>
<polygon class="V1drawing" points="2279.6,1948 2335.6,1948 2335.6,1892 2279.6,1892 2279.6,1948"/>
</svg>
